<?xml version="1.0" encoding="UTF-8"?>
<svg width="980px" height="200px" viewBox="0 0 980 200" version="1.1" xmlns="http://www.w3.org/2000/svg" xmlns:xlink="http://www.w3.org/1999/xlink">
    <!-- Generator: Sketch 41.2 (35397) - http://www.bohemiancoding.com/sketch -->
    <title>astronomykit</title>
    <desc>Created with Sketch.</desc>
    <defs>
        <linearGradient x1="50%" y1="0%" x2="50%" y2="99.3084343%" id="linearGradient-1">
            <stop stop-color="#3F51B5" offset="0%"></stop>
            <stop stop-color="#673AB7" offset="100%"></stop>
        </linearGradient>
    </defs>
    <g id="Page-1" stroke="none" stroke-width="1" fill="none" fill-rule="evenodd">
        <g id="astronomykit">
            <rect id="Rectangle" fill="url(#linearGradient-1)" x="0" y="0" width="980" height="200"></rect>
            <path d="M186.695312,150.796875 L190.632812,150.796875 L151.609375,49.3359375 L148.023438,49.3359375 L109,150.796875 L112.867188,150.796875 L126.226562,115.570312 L173.40625,115.570312 L186.695312,150.796875 Z M149.640625,54.1875 L149.992188,54.1875 L172.140625,112.335938 L127.492188,112.335938 L149.640625,54.1875 Z M198.507812,93.984375 C198.507812,103.6875 204.90625,108.960938 217.5625,111.984375 L229.445312,114.726562 C242.875,117.890625 248.21875,122.742188 248.21875,131.390625 C248.21875,141.796875 237.460938,148.6875 224.171875,148.6875 C210.53125,148.6875 200.40625,140.039062 199.492188,129.421875 L195.976562,129.421875 C196.75,141.726562 208,151.921875 224.242188,151.921875 C240.203125,151.921875 251.734375,143.554688 251.734375,131.179688 C251.734375,120.914062 245.476562,115.21875 230.5,111.5625 L218.757812,108.75 C207.296875,106.078125 201.953125,102.070312 201.953125,93.9140625 C201.953125,84 212.21875,77.25 223.960938,77.25 C237.53125,77.25 245.898438,85.546875 247.164062,97.078125 L250.539062,97.078125 C249.203125,82.9453125 239.148438,74.015625 223.960938,74.015625 C209.96875,74.015625 198.507812,82.171875 198.507812,93.984375 Z M268.328125,54.890625 L268.328125,75.140625 L257.078125,75.140625 L257.078125,78.3046875 L268.328125,78.3046875 L268.328125,134.34375 C268.328125,146.15625 272.828125,150.867188 283.023438,150.867188 C283.234375,150.867188 288.296875,150.796875 288.4375,150.796875 L288.4375,147.5625 C288.367188,147.5625 283.304688,147.632812 283.234375,147.632812 C275.21875,147.632812 271.773438,143.90625 271.773438,134.273438 L271.773438,78.3046875 L287.101562,78.3046875 L287.101562,75.140625 L271.773438,75.140625 L271.773438,54.890625 L268.328125,54.890625 Z M301.164062,150.796875 L304.609375,150.796875 L304.609375,103.6875 C304.609375,88.359375 312.34375,77.3203125 324.859375,77.3203125 C328.585938,77.3203125 331.328125,78.234375 333.015625,79.078125 L333.015625,75.4921875 C331.539062,74.859375 328.585938,74.015625 325.421875,74.015625 C315.015625,74.015625 307.84375,79.8515625 304.539062,90.8203125 L304.398438,90.8203125 L304.398438,75.140625 L301.164062,75.140625 L301.164062,150.796875 Z M366.90625,151.921875 C386.734375,151.921875 400.234375,136.875 400.234375,112.96875 C400.234375,89.0625 386.734375,74.015625 366.90625,74.015625 C347.078125,74.015625 333.578125,89.0625 333.578125,112.96875 C333.578125,136.875 347.007812,151.921875 366.90625,151.921875 Z M366.90625,148.617188 C349.046875,148.617188 337.09375,134.90625 337.09375,112.96875 C337.09375,91.03125 349.046875,77.25 366.90625,77.25 C384.765625,77.25 396.789062,91.03125 396.789062,112.96875 C396.789062,134.835938 384.765625,148.617188 366.90625,148.617188 Z M413.242188,150.796875 L416.6875,150.796875 L416.6875,105.375 C416.6875,88.8515625 427.445312,77.25 442.984375,77.25 C457.75,77.25 468.085938,86.671875 468.085938,102 L468.085938,150.796875 L471.53125,150.796875 L471.53125,101.859375 C471.53125,84.84375 460.070312,74.015625 443.40625,74.015625 C430.1875,74.015625 419.851562,81.8203125 416.617188,93 L416.476562,93 L416.476562,75.140625 L413.242188,75.140625 L413.242188,150.796875 Z M517.375,151.921875 C537.203125,151.921875 550.703125,136.875 550.703125,112.96875 C550.703125,89.0625 537.203125,74.015625 517.375,74.015625 C497.546875,74.015625 484.046875,89.0625 484.046875,112.96875 C484.046875,136.875 497.476562,151.921875 517.375,151.921875 Z M517.375,148.617188 C499.515625,148.617188 487.5625,134.90625 487.5625,112.96875 C487.5625,91.03125 499.515625,77.25 517.375,77.25 C535.234375,77.25 547.257812,91.03125 547.257812,112.96875 C547.257812,134.835938 535.234375,148.617188 517.375,148.617188 Z M563.710938,150.796875 L567.15625,150.796875 L567.15625,106.289062 C567.15625,88.5 576.507812,77.25 590.007812,77.25 C602.171875,77.25 611.03125,86.7421875 611.03125,101.015625 L611.03125,150.796875 L614.476562,150.796875 L614.476562,104.109375 C614.476562,88.21875 623.617188,77.25 637.257812,77.25 C650.265625,77.25 658.351562,86.25 658.351562,100.875 L658.351562,150.796875 L661.796875,150.796875 L661.796875,100.101562 C661.796875,84.2109375 652.09375,74.015625 637.75,74.015625 C624.8125,74.015625 615.8125,83.0859375 613.632812,93.0703125 L613.492188,93.0703125 C611.523438,82.734375 602.804688,74.015625 590.289062,74.015625 C577.84375,74.015625 569.6875,82.3125 567.085938,93 L566.945312,93 L566.945312,75.140625 L563.710938,75.140625 L563.710938,150.796875 Z M681.765625,176.25 C691.679688,176.25 695.40625,172.03125 702.296875,153.890625 L732.109375,75.140625 L728.3125,75.140625 L701.03125,147.492188 L700.890625,147.492188 L673.679688,75.140625 L669.882812,75.140625 L699.0625,152.132812 L696.601562,158.53125 C692.3125,169.289062 688.867188,173.015625 682.117188,173.015625 C680.78125,173.015625 679.164062,172.664062 678.460938,172.382812 L678.460938,175.617188 C678.953125,175.828125 680.429688,176.25 681.765625,176.25 Z M748.351562,150.796875 L748.351562,113.109375 L763.960938,96.4453125 L808.679688,150.796875 L813.179688,150.796875 L766.492188,93.984375 L808.257812,49.3359375 L803.757812,49.3359375 L748.632812,108.117188 L748.351562,108.117188 L748.351562,49.3359375 L744.835938,49.3359375 L744.835938,150.796875 L748.351562,150.796875 Z M825.695312,150.796875 L829.140625,150.796875 L829.140625,75.140625 L825.695312,75.140625 L825.695312,150.796875 Z M827.453125,54.75 C829.28125,54.75 830.828125,53.203125 830.828125,51.375 C830.828125,49.4765625 829.28125,48 827.453125,48 C825.554688,48 824.007812,49.4765625 824.007812,51.375 C824.007812,53.203125 825.554688,54.75 827.453125,54.75 Z M850.9375,54.890625 L850.9375,75.140625 L839.6875,75.140625 L839.6875,78.3046875 L850.9375,78.3046875 L850.9375,134.34375 C850.9375,146.15625 855.4375,150.867188 865.632812,150.867188 C865.84375,150.867188 870.90625,150.796875 871.046875,150.796875 L871.046875,147.5625 C870.976562,147.5625 865.914062,147.632812 865.84375,147.632812 C857.828125,147.632812 854.382812,143.90625 854.382812,134.273438 L854.382812,78.3046875 L869.710938,78.3046875 L869.710938,75.140625 L854.382812,75.140625 L854.382812,54.890625 L850.9375,54.890625 Z" id="AstronomyKit" fill="#FFFFFF"></path>
        </g>
    </g>
</svg>